<svg xmlns="http://www.w3.org/2000/svg" width="120" height="120" aria-label="FIG_001.B: a SKILL.md file dropping into an agent's skill folder" role="img" viewBox="0 0 120 120"><defs><style>.bp{stroke:#3553ff;fill:none;stroke-linejoin:round;stroke-linecap:round}.face,.ink{fill:#3553ff}.face{fill-opacity:.08}.face-strong{fill:#3553ff;fill-opacity:.18}.mono{font-family:&apos;JetBrains Mono&apos;,ui-monospace,SFMono-Regular,Menlo,Consolas,monospace;font-weight:600}</style></defs><rect width="120" height="120" fill="#fafaf5"/><text x="10" y="15" class="mono ink" font-size="7" letter-spacing="1.4">FIG_001.B</text><rect width="52" height="54" x="30" y="20" class="face"/><rect width="52" height="13" x="30" y="20" class="face-strong"/><rect width="52" height="54" x="30" y="20" stroke-width="1.6" class="bp"/><line x1="30" x2="82" y1="33" y2="33" stroke-width="1.2" class="bp"/><text x="56" y="29.5" class="mono ink" font-size="7" letter-spacing=".8" text-anchor="middle">SKILL.md</text><line x1="36" x2="76" y1="42" y2="42" stroke-width="1.2" class="bp"/><line x1="36" x2="70" y1="49" y2="49" stroke-width="1.2" class="bp"/><line x1="36" x2="76" y1="56" y2="56" stroke-width="1.2" class="bp"/><line x1="36" x2="62" y1="63" y2="63" stroke-width="1.2" class="bp"/><line x1="56" x2="56" y1="74" y2="87" stroke-width="1.6" class="bp"/><polyline stroke-width="1.6" points="51 82 56 87 61 82" class="bp"/><rect width="12" height="6" x="26" y="86" class="face-strong"/><rect width="12" height="6" x="26" y="86" stroke-width="1" class="bp"/><rect width="12" height="6" x="74" y="86" class="face-strong"/><rect width="12" height="6" x="74" y="86" stroke-width="1" class="bp"/><path stroke-width="1.6" d="M20 80 V96 H92 V80" class="bp"/><text x="60" y="110" class="mono ink" font-size="8.5" letter-spacing="2.2" text-anchor="middle">SKILL</text></svg>